<svg xmlns="http://www.w3.org/2000/svg" width="1210" height="834" viewBox="0 0 1210 834" fill="none">
    <g clip-path="url(#clip0_1_106947)">
        <line opacity="0.25" x1="1147.53" y1="833.17" x2="31.4987" y2="833.17" stroke="#263238"
            stroke-width="2.33969" />





        <path opacity="0.5"
            d="M303.841 713.137H219.028C217.858 713.137 216.922 712.201 216.922 711.032C216.922 709.862 217.858 708.926 219.028 708.926H303.841C305.011 708.926 305.947 709.862 305.947 711.032C305.947 712.201 305.011 713.137 303.841 713.137Z"
            fill="#E0E0E0" />
        <path opacity="0.5"
            d="M688.72 783.329H603.907C602.737 783.329 601.801 782.393 601.801 781.223C601.801 780.053 602.737 779.117 603.907 779.117H688.72C689.89 779.117 690.826 780.053 690.826 781.223C690.826 782.393 689.89 783.329 688.72 783.329Z"
            fill="#E0E0E0" />
        <g opacity="0.5">
            <path
                d="M71.1582 87.5052C69.4034 87.5052 67.7656 85.8674 67.7656 83.8786C67.7656 72.5311 74.6677 63.4063 83.3246 63.4063C86.0152 63.4063 88.4719 64.3422 90.6946 65.863C93.8532 55.4514 101.574 48.1984 110.582 48.1984C113.39 48.1984 116.08 48.9003 118.537 50.1871C123.099 44.4548 129.299 40.9453 136.085 40.9453C145.326 40.9453 153.398 47.3795 157.844 57.0892C161.704 51.5909 167.319 48.0814 173.52 48.0814C185.335 48.0814 194.928 60.7157 194.928 76.3916C194.928 79.3162 194.577 82.1239 193.992 84.8145C193.641 86.4523 192.237 87.5052 190.716 87.5052H71.1582Z"
                fill="#E0E0E0" />
            <path
                d="M384.676 109.498C386.431 109.498 388.069 108.094 388.069 106.339C388.069 96.3953 381.167 88.3233 372.51 88.3233C369.819 88.3233 367.362 89.1422 365.14 90.546C361.981 81.4212 354.26 74.9871 345.252 74.9871C342.445 74.9871 339.754 75.689 337.297 76.7419C332.735 71.7115 326.535 68.6699 319.867 68.6699C310.625 68.6699 302.553 74.4022 298.108 82.942C294.247 78.0287 288.632 74.9871 282.432 74.9871C270.616 74.9871 261.023 86.1006 261.023 99.9048C261.023 102.478 261.374 104.935 261.959 107.275C262.31 108.679 263.714 109.731 265.235 109.731H384.676V109.498Z"
                fill="#E0E0E0" />
            <path
                d="M107.658 102.127H22.844C21.6742 102.127 20.7383 101.192 20.7383 100.022C20.7383 98.8519 21.6742 97.916 22.844 97.916H107.658C108.828 97.916 109.764 98.8519 109.764 100.022C109.764 101.192 108.828 102.127 107.658 102.127Z"
                fill="#E0E0E0" />
            <path
                d="M429.598 121.899H364.555C363.385 121.899 362.449 120.963 362.449 119.793C362.449 118.623 363.385 117.688 364.555 117.688H429.598C430.768 117.688 431.704 118.623 431.704 119.793C431.704 120.963 430.768 121.899 429.598 121.899Z"
                fill="#E0E0E0" />
        </g>
        <g opacity="0.5">
            <path
                d="M1156.54 46.5599C1158.3 46.5599 1159.93 44.9221 1159.93 42.9333C1159.93 31.5858 1153.03 22.461 1144.37 22.461C1141.68 22.461 1139.23 23.3969 1137 24.9177C1133.85 14.5061 1126.13 7.25304 1117.12 7.25304C1114.31 7.25304 1111.62 7.95495 1109.16 9.24178C1104.6 3.50954 1098.4 0 1091.61 0C1082.37 0 1074.3 6.43415 1069.86 16.1439C1066 10.6456 1060.38 7.13606 1054.18 7.13606C1042.36 7.13606 1032.77 19.7704 1032.77 35.4463C1032.77 38.3709 1033.12 41.1786 1033.71 43.8692C1034.06 45.507 1035.46 46.5599 1036.98 46.5599H1156.54Z"
                fill="#E0E0E0" />
            <path
                d="M811.437 123.886C809.682 123.886 808.045 122.482 808.045 120.728C808.045 110.784 814.947 102.712 823.604 102.712C826.294 102.712 828.751 103.531 830.974 104.935C834.132 95.8099 841.853 89.3758 850.861 89.3758C853.669 89.3758 856.359 90.0777 858.816 91.1305C863.378 86.1002 869.579 83.0586 876.247 83.0586C885.488 83.0586 893.56 88.7908 898.006 97.3307C901.866 92.4174 907.482 89.3758 913.682 89.3758C925.497 89.3758 935.09 100.489 935.09 114.293C935.09 116.867 934.739 119.324 934.154 121.663C933.803 123.067 932.399 124.12 930.878 124.12H811.437V123.886Z"
                fill="#E0E0E0" />
            <path
                d="M1120.04 61.1821H1204.86C1206.03 61.1821 1206.96 60.2463 1206.96 59.0764C1206.96 57.9066 1206.03 56.9707 1204.86 56.9707H1120.04C1118.87 56.9707 1117.94 57.9066 1117.94 59.0764C1117.94 60.2463 1118.87 61.1821 1120.04 61.1821Z"
                fill="#E0E0E0" />
            <path
                d="M766.515 136.288H831.558C832.728 136.288 833.664 135.352 833.664 134.182C833.664 133.012 832.728 132.076 831.558 132.076H766.515C765.345 132.076 764.409 133.012 764.409 134.182C764.409 135.352 765.345 136.288 766.515 136.288Z"
                fill="#E0E0E0" />
        </g>
        <g opacity="0.25" clip-path="url(#clip1_1_106947)">
            <path
                d="M66.8167 314.43C66.3871 312.593 65.6975 310.728 64.8982 308.903C63.9891 307.119 62.9011 305.526 61.744 304.083L57.3623 307.074C56.2457 305.741 54.8406 304.639 53.476 303.647L55.8394 298.907C52.5902 296.865 48.7351 295.547 44.8754 295.227L44.0435 300.399C42.3737 300.268 40.5655 300.438 38.7979 300.717L37.1919 295.698C35.3552 296.128 33.4898 296.817 31.6651 297.617C29.8809 298.526 28.2875 299.614 26.8444 300.771L29.8363 305.153C28.503 306.269 27.4011 307.674 26.4089 309.039L21.6687 306.676C19.6271 309.925 18.3085 313.78 17.9893 317.64L23.2016 318.581C23.0706 320.251 23.2402 322.059 23.5195 323.827L18.5007 325.433C18.9303 327.269 19.6199 329.135 20.4192 330.96C21.3283 332.744 22.4163 334.337 23.5734 335.78L27.9551 332.788C29.0717 334.122 30.4768 335.224 31.8414 336.216L29.478 340.956C32.7272 342.998 36.5823 344.316 40.442 344.635L41.3836 339.423C43.0535 339.554 44.8616 339.384 46.6292 339.105L48.2352 344.124C50.072 343.694 51.9373 343.005 53.7621 342.205C55.5463 341.296 57.1396 340.208 58.5827 339.051L55.5908 334.67C56.9242 333.553 58.0261 332.148 59.0183 330.783L63.7584 333.147C65.8 329.897 67.1187 326.042 67.4379 322.183L62.2255 321.241C62.3565 319.571 62.187 317.763 61.9077 315.995L66.8167 314.43ZM47.9831 330.622C42.0819 333.552 34.9324 331.082 32.0023 325.181C29.0723 319.279 31.5428 312.13 37.444 309.2C43.3453 306.27 50.4948 308.74 53.4248 314.642C56.3549 320.543 53.8844 327.692 47.9831 330.622ZM46.5587 327.781C42.2222 329.884 36.9859 328.202 34.8838 323.866C32.7817 319.529 34.4628 314.293 38.7993 312.191C43.1358 310.089 48.3721 311.77 50.4742 316.107C52.686 320.402 51.0049 325.639 46.5587 327.781Z"
                fill="#D9ECF9" />
            <path
                d="M119.882 256.897C118.262 254.877 116.354 253.088 114.116 251.421C112.028 249.823 109.652 248.456 107.288 247.459L103.864 253.714C101.65 252.787 99.3381 252.269 96.998 252.012L97.0997 244.865C91.9399 244.403 86.5966 245.131 81.6995 247.066L83.7351 253.922C81.5811 254.843 79.5083 255.983 77.7075 257.522L72.6926 252.392C70.6032 254.162 68.7738 255.961 67.1066 258.199C65.5086 260.286 64.142 262.662 63.1452 265.026L69.4002 268.451C68.4726 270.665 67.9552 272.976 67.6978 275.317L60.5916 275.325C60.0603 280.635 60.8982 285.937 62.8334 290.835L69.6889 288.799C70.61 290.953 71.7505 293.026 73.2893 294.827L68.1588 299.841C69.7787 301.862 71.6873 303.651 73.9251 305.318C76.0125 306.916 78.3886 308.282 80.7527 309.279L84.1775 303.024C86.3913 303.952 88.7029 304.469 91.043 304.726L91.051 311.833C96.3611 312.364 101.664 311.526 106.561 309.591L104.525 302.735C106.679 301.814 108.752 300.674 110.553 299.135L115.568 304.266C117.588 302.646 119.377 300.737 121.044 298.499C122.642 296.412 124.009 294.036 125.006 291.672L118.75 288.247C119.678 286.033 120.196 283.721 120.453 281.381L127.559 281.373C128.09 276.063 127.253 270.76 125.317 265.863L118.462 267.899C117.541 265.745 116.4 263.672 114.861 261.871L119.882 256.897ZM106.976 288.11C101.617 295.205 91.45 296.718 84.2453 291.4C77.1503 286.04 75.6367 275.874 80.9554 268.669C86.3147 261.574 96.4813 260.061 103.686 265.379C110.931 270.808 112.335 281.015 106.976 288.11ZM103.524 285.52C99.5837 290.718 92.1436 291.847 86.9452 287.907C81.7468 283.967 80.6176 276.527 84.5578 271.329C88.4979 266.13 95.938 265.001 101.136 268.941C106.444 272.841 107.464 280.321 103.524 285.52Z"
                fill="#D9ECF9" />
        </g>
        <g opacity="0.5" clip-path="url(#clip2_1_106947)">
            <path
                d="M1154.67 228.938C1183.16 228.938 1206.26 205.84 1206.26 177.348C1206.26 148.856 1183.16 125.758 1154.67 125.758C1126.18 125.758 1103.08 148.856 1103.08 177.348C1103.08 205.84 1126.18 228.938 1154.67 228.938Z"
                fill="#E0E0E0" />
            <path
                d="M1154.67 128.683C1181.57 128.683 1203.33 150.442 1203.33 177.349C1203.33 204.255 1181.57 226.014 1154.67 226.014C1127.76 226.014 1106 204.255 1106 177.349C1106 150.442 1127.76 128.683 1154.67 128.683ZM1154.67 122.834C1124.6 122.834 1100.15 147.284 1100.15 177.349C1100.15 207.414 1124.6 231.864 1154.67 231.864C1184.73 231.864 1209.18 207.414 1209.18 177.349C1209.18 147.284 1184.73 122.834 1154.67 122.834Z"
                fill="#EAEAEA" />
            <path d="M1184.27 182.262L1154.79 145.529L1125.07 182.262H1141.92V209.169H1167.66V182.262H1184.27Z"
                fill="#FAFAFA" />
        </g>
        <g opacity="0.25">
            <path d="M1034.61 217.355L1002.64 246.654" stroke="#B7D1FF" stroke-width="5.84923" stroke-miterlimit="10"
                stroke-linejoin="round" />
            <path d="M1032.66 247.856L1003.56 216.111" stroke="#B7D1FF" stroke-width="5.84923" stroke-miterlimit="10"
                stroke-linejoin="round" />
        </g>
        <path opacity="0.25"
            d="M1120.45 341.905C1113.41 348.361 1102.02 347.905 1095.61 340.91C1089.2 333.915 1089.74 322.534 1096.78 316.078C1103.83 309.623 1115.21 310.079 1121.62 317.073C1128.03 324.068 1127.5 335.449 1120.45 341.905Z"
            stroke="#B7D1FF" stroke-width="5.84923" stroke-miterlimit="10" stroke-linejoin="round" />

        <path
            d="M1169.64 831.523H808.618C808.618 831.523 804.368 746.577 879.407 740.92C879.407 740.92 891.841 669.087 975.668 668.709C1076.19 668.27 1077.43 755.758 1077.43 755.758C1077.43 755.758 1159.73 747.998 1169.7 831.523"
            fill="#F5F5F5" />
        <path
            d="M1169.64 831.526C1169.64 831.526 1169.64 831.329 1169.52 830.921C1169.4 830.512 1169.35 829.907 1169.22 829.121C1169.08 828.334 1168.95 827.336 1168.75 826.095C1168.57 824.732 1168.32 823.378 1167.99 822.042C1167.66 820.529 1167.28 818.82 1166.86 816.944C1166.44 815.069 1165.74 813.102 1165.1 810.894C1164.47 808.685 1163.5 806.492 1162.59 804.072L1160.93 800.427C1160.64 799.807 1160.34 799.171 1160.05 798.536L1159.01 796.645C1158.28 795.39 1157.65 794.029 1156.78 792.758L1154.21 788.825L1151.19 784.923C1150.13 783.622 1148.93 782.382 1147.78 781.066C1142.59 775.561 1136.55 770.91 1129.91 767.286C1122.36 763.143 1114.26 760.126 1105.84 758.331C1101.28 757.341 1096.66 756.654 1092.02 756.274C1087.16 755.824 1082.27 755.754 1077.4 756.063H1077.06V755.715C1076.81 750.62 1076.1 745.558 1074.95 740.589C1073.81 735.433 1072.26 730.375 1070.33 725.463C1066.3 715.03 1060.31 705.464 1052.69 697.284C1048.68 693.045 1044.23 689.247 1039.41 685.954C1038.2 685.092 1036.91 684.366 1035.66 683.564L1033.75 682.4L1031.77 681.356C1030.44 680.675 1029.12 679.934 1027.76 679.299L1023.62 677.62C1022.24 676.97 1020.79 676.516 1019.35 676.001C1017.91 675.487 1016.51 674.928 1015.03 674.489C1012.08 673.702 1009.14 672.719 1006.09 672.19L1001.55 671.237L996.92 670.571C993.894 670.042 990.703 669.83 987.572 669.588C981.092 669.145 974.592 669.079 968.105 669.391L963.31 669.8L960.935 670.012L958.56 670.344L953.856 671.04L949.228 672.008C943.152 673.306 937.216 675.186 931.5 677.62C925.945 680.03 920.645 682.99 915.679 686.453C906.22 693.163 898.18 701.675 892.022 711.502C889.092 716.123 886.562 720.986 884.459 726.038C882.397 730.854 880.806 735.859 879.709 740.982V741.239H879.452C870.264 741.837 861.247 744.017 852.8 747.683C845.199 751.016 838.328 755.811 832.577 761.795C827.552 767.07 823.328 773.053 820.038 779.553C817.232 785.064 814.982 790.84 813.322 796.797C810.963 805.135 809.488 813.697 808.92 822.344C808.724 825.369 808.663 827.623 808.648 829.166C808.633 830.709 808.648 831.51 808.648 831.51C808.648 831.51 808.648 830.724 808.542 829.166C808.436 827.608 808.542 825.324 808.724 822.329C809.213 813.657 810.628 805.062 812.944 796.691C814.591 790.702 816.825 784.891 819.614 779.341C822.899 772.788 827.124 766.75 832.154 761.417C837.953 755.395 844.875 750.565 852.528 747.199C861.033 743.483 870.116 741.267 879.377 740.649L879.074 740.922C880.164 735.738 881.754 730.672 883.824 725.796C885.93 720.707 888.46 715.804 891.386 711.139C897.583 701.229 905.68 692.644 915.21 685.879C920.221 682.385 925.567 679.395 931.167 676.954C936.925 674.477 942.907 672.557 949.031 671.222L953.69 670.254L958.424 669.558L960.814 669.21L963.204 669.013L968.029 668.59C974.552 668.278 981.087 668.343 987.602 668.786C990.748 669.028 993.894 669.255 996.995 669.77L1001.65 670.45L1006.19 671.403C1009.22 671.948 1012.24 672.916 1015.18 673.718C1016.69 674.141 1018.1 674.716 1019.55 675.23C1021 675.744 1022.45 676.213 1023.83 676.864L1028.02 678.694C1029.39 679.329 1030.71 680.085 1032.06 680.766L1034.05 681.81L1035.97 683.005C1037.25 683.806 1038.55 684.517 1039.77 685.395C1044.63 688.733 1049.12 692.577 1053.17 696.86C1060.87 705.113 1066.91 714.766 1070.96 725.297C1072.91 730.269 1074.47 735.387 1075.62 740.604C1076.76 745.601 1077.45 750.687 1077.71 755.806L1077.33 755.473C1082.23 755.17 1087.15 755.256 1092.05 755.73C1096.72 756.138 1101.36 756.861 1105.93 757.893C1114.4 759.721 1122.55 762.778 1130.13 766.968C1136.81 770.636 1142.87 775.338 1148.09 780.899C1149.25 782.23 1150.45 783.486 1151.49 784.802L1154.52 788.75C1155.39 790.096 1156.24 791.427 1157.09 792.713C1157.93 793.998 1158.6 795.36 1159.3 796.63L1160.32 798.521L1161.2 800.427L1162.85 804.102C1163.76 806.538 1164.64 808.807 1165.33 810.969L1167.06 817.02C1167.45 818.895 1167.81 820.605 1168.14 822.132C1168.48 823.66 1168.69 825.021 1168.86 826.201C1169.02 827.381 1169.16 828.364 1169.26 829.226C1169.37 830.089 1169.46 830.618 1169.52 831.041C1169.58 831.465 1169.64 831.526 1169.64 831.526Z"
            fill="#263238" />
        <path d="M971.283 587L903.746 648.199H944.525V734.795H969.755H972.811H998.041V648.199H1038.82L971.283 587Z"
            fill="#E89746" />
        <path
            d="M923.364 705.223C947.096 699.248 962.509 705.949 973.476 721.302C982.869 705.147 1004.53 700.715 1021.88 707.688L1032.78 749.012L966.351 757.709L910.824 747.53L923.364 705.223Z"
            fill="#F5F5F5" />
        <path
            d="M1016.61 706.358C1016.61 706.434 1015.3 705.904 1012.89 705.254C1009.48 704.374 1005.95 704.063 1002.44 704.331C1000.01 704.494 997.605 704.9 995.256 705.541C992.569 706.321 989.976 707.396 987.527 708.748C981.835 711.83 977.191 716.538 974.186 722.271L973.868 722.906L973.49 722.286L972.098 720.032C970.175 717.112 967.83 714.492 965.14 712.257C962.627 710.185 959.862 708.436 956.912 707.054C951.915 704.668 946.474 703.354 940.939 703.197C937.203 703.069 933.469 703.513 929.867 704.513C927.341 705.284 925.979 705.844 925.949 705.768C926.253 705.579 926.578 705.427 926.917 705.314C927.854 704.898 928.814 704.534 929.791 704.225C933.405 703.118 937.176 702.607 940.954 702.713C949.969 702.875 958.666 706.073 965.639 711.788C968.391 714.065 970.792 716.736 972.764 719.714L974.186 722.028H973.49C976.559 716.156 981.33 711.348 987.179 708.234C991.859 705.644 997.069 704.159 1002.41 703.893C1005.98 703.675 1009.56 704.074 1013 705.072C1013.92 705.337 1014.83 705.666 1015.71 706.056C1016.02 706.124 1016.32 706.226 1016.61 706.358Z"
            fill="#263238" />
    </g>
    <defs>
        <clipPath id="clip0_1_106947">
            <rect width="1208.68" height="834" fill="white" transform="translate(0.5)" />
        </clipPath>
        <clipPath id="clip1_1_106947">
            <rect width="120.962" height="79.5495" fill="white" transform="translate(0.5 277.084) rotate(-20.2894)" />
        </clipPath>
        <clipPath id="clip2_1_106947">
            <rect width="109.03" height="109.03" fill="white" transform="translate(1100.15 122.834)" />
        </clipPath>
    </defs>
</svg>